<svg width="32" height="38" viewBox="0 0 32 38" fill="none" xmlns="http://www.w3.org/2000/svg">
<path d="M15.9968 22.5058C12.3633 22.5058 9.39523 19.4922 9.39523 15.7644C9.39523 12.0368 12.3633 9.0406 15.9968 9.0406C19.6301 9.0406 22.5982 12.0542 22.5982 15.7819C22.5982 19.5096 19.6301 22.5058 15.9968 22.5058ZM15.9968 11.6535C13.7792 11.6535 11.9539 13.5 11.9539 15.7819C11.9539 18.0638 13.7622 19.9103 15.9968 19.9103C18.2314 19.9103 20.0395 18.0638 20.0395 15.7819C20.0395 13.5 18.2143 11.6535 15.9968 11.6535Z" fill="white"/>
<path d="M15.9947 37.4693C13.4701 37.4693 10.9285 36.4938 8.94975 34.5602C3.91762 29.6131 -1.6433 21.7221 0.454838 12.333C2.34828 3.81486 9.63207 0 15.9947 0H16.0118C22.3744 0 29.6582 3.81486 31.5517 12.3504C33.6328 21.7395 28.0718 29.6131 23.0397 34.5602C21.061 36.4938 18.5193 37.4693 15.9947 37.4693ZM15.9947 2.61292C11.0308 2.61292 4.65112 5.31294 2.96237 12.9078C1.1201 21.1124 6.16929 28.1847 10.7408 32.6615C13.6919 35.5706 18.3146 35.5706 21.2657 32.6615C25.8202 28.1847 30.8694 21.1124 29.0612 12.9078C27.3554 5.31294 20.9586 2.61292 15.9947 2.61292Z" fill="white"/>
</svg>
